<?xml version="1.0" encoding="UTF-8"?>
<svg version="1.1" xmlns="http://www.w3.org/2000/svg" width="617" height="104">
<path d="M0 0 C11.51977544 8.67976917 18.3216291 20.39590229 21.28515625 34.47265625 C22.49502811 51.10839438 19.27399215 65.26865972 8.28515625 78.16015625 C-0.55837581 87.49252677 -12.02209195 94.75271054 -25.17578125 95.18359375 C-43.26428553 95.64563271 -56.08695473 92.51632758 -69.7109375 79.81640625 C-81.45756264 67.55905828 -84.07841198 53.63999561 -83.7734375 37.31640625 C-83.23504725 24.32355267 -76.98519129 12.3767151 -67.4609375 3.53125 C-47.67492822 -12.53762251 -21.28008474 -14.4214675 0 0 Z " fill="#5267DF" transform="translate(83.46484375,9.08984375)"/>
<path d="M0 0 C4.95 0 9.9 0 15 0 C19.18508762 10.36712061 23.35597224 20.73093329 27.18408203 31.23632812 C28.17587349 34.36070226 28.17587349 34.36070226 30 37 C34.62 24.79 39.24 12.58 44 0 C48.95 0 53.9 0 59 0 C59 18.81 59 37.62 59 57 C55.04 57 51.08 57 47 57 C47 46.44 47 35.88 47 25 C46.14535156 27.22621094 45.29070312 29.45242187 44.41015625 31.74609375 C43.58340351 33.89420879 42.75573634 36.04196936 41.92797852 38.18969727 C41.35182422 39.68607317 40.7766259 41.18281751 40.20239258 42.67993164 C39.37830805 44.82795524 38.55082926 46.97464372 37.72265625 49.12109375 C37.46533218 49.79401962 37.20800812 50.4669455 36.94288635 51.16026306 C35.11387171 55.88612829 35.11387171 55.88612829 34 57 C32.48071962 57.07179964 30.95832518 57.08392007 29.4375 57.0625 C28.61121094 57.05347656 27.78492188 57.04445312 26.93359375 57.03515625 C26.29550781 57.02355469 25.65742188 57.01195312 25 57 C20.77988761 47.08176351 16.88448928 37.05397225 13 27 C12.67 36.9 12.34 46.8 12 57 C8.04 57 4.08 57 0 57 C0 38.19 0 19.38 0 0 Z M11 22 C12 24 12 24 12 24 Z " fill="#FFFFFF" transform="translate(390,24)"/>
<path d="M0 0 C6.44941985 5.55984469 10.29412948 12.49857617 11.37890625 20.953125 C11.73817926 29.99289742 9.49127362 37.20917521 3.875 44.3125 C-2.14305455 50.63785947 -9.45507959 53.72368123 -18.13671875 54.12890625 C-26.84188443 53.73699565 -34.93466107 51.49761253 -41 45 C-47.65940585 35.77592144 -48.88049945 28.32420132 -48 17 C-46.27706786 9.97717877 -43.03215586 3.82172311 -36.99609375 -0.40234375 C-25.05116097 -7.56930342 -11.71878051 -8.03916342 0 0 Z M-30.8359375 9.55078125 C-34.61462857 13.70734143 -36.96136496 17.6277126 -37.02734375 23.38671875 C-36.62505357 30.28754267 -34.64434671 34.20010348 -29.875 39.25 C-25.25215294 42.0639069 -20.17086262 43.57802183 -14.75 42.58984375 C-9.46476528 40.75802944 -5.49717602 38.06507037 -2.1875 33.5 C-0.20475784 27.65612837 0.26246839 21.46757983 -1.87890625 15.5859375 C-5.31787967 9.52517247 -9.68598297 6.92056029 -16.375 5.0625 C-21.85173038 4.96807361 -26.56908089 5.94664918 -30.8359375 9.55078125 Z " fill="#FFFFFF" transform="translate(249,30)"/>
<path d="M0 0 C6.44941985 5.55984469 10.29412948 12.49857617 11.37890625 20.953125 C11.73817926 29.99289742 9.49127362 37.20917521 3.875 44.3125 C-2.14305455 50.63785947 -9.45507959 53.72368123 -18.13671875 54.12890625 C-26.84188443 53.73699565 -34.93466107 51.49761253 -41 45 C-47.65509398 35.78189389 -48.89135784 28.31902356 -48 17 C-45.97167688 9.02333032 -42.07607978 2.80243848 -35.171875 -1.859375 C-23.64437391 -7.91338637 -10.69053655 -7.33378105 0 0 Z M-30.8359375 9.55078125 C-34.61462857 13.70734143 -36.96136496 17.6277126 -37.02734375 23.38671875 C-36.62505357 30.28754267 -34.64434671 34.20010348 -29.875 39.25 C-25.25215294 42.0639069 -20.17086262 43.57802183 -14.75 42.58984375 C-9.46476528 40.75802944 -5.49717602 38.06507037 -2.1875 33.5 C-0.20475784 27.65612837 0.26246839 21.46757983 -1.87890625 15.5859375 C-5.31787967 9.52517247 -9.68598297 6.92056029 -16.375 5.0625 C-21.85173038 4.96807361 -26.56908089 5.94664918 -30.8359375 9.55078125 Z " fill="#FFFFFF" transform="translate(313,30)"/>
<path d="M0 0 C30.86046512 0 30.86046512 0 36.8125 5.6875 C39.3785255 9.57319576 40.32209161 12.36545966 40 17 C38.95395642 20.97813544 37.24422068 24.37372612 34 27 C34.94875 27.70125 35.8975 28.4025 36.875 29.125 C40.04040654 31.80399655 41.27589152 33.81626211 42 38 C42.13447666 42.6730641 41.72524041 46.59783341 38.8125 50.375 C33.79272394 55.06012433 29.66801785 56.3803592 22.8515625 56.29296875 C21.64838379 56.28547607 20.44520508 56.2779834 19.20556641 56.27026367 C17.69397949 56.24295166 16.18239258 56.21563965 14.625 56.1875 C9.79875 56.125625 4.9725 56.06375 0 56 C0 37.52 0 19.04 0 0 Z M11 10 C11 13.96 11 17.92 11 22 C13.27024968 22.08097324 15.54132075 22.13917704 17.8125 22.1875 C19.70935547 22.23970703 19.70935547 22.23970703 21.64453125 22.29296875 C24.92524645 22.284678 24.92524645 22.284678 26.921875 20.67578125 C28.63011574 18.02058097 28.44720723 16.06656388 28 13 C25.60186139 10.49683342 24.24931754 10.02258311 20.765625 9.70703125 C19.02539062 9.75923828 19.02539062 9.75923828 17.25 9.8125 C16.07953125 9.83957031 14.9090625 9.86664063 13.703125 9.89453125 C12.81109375 9.92933594 11.9190625 9.96414062 11 10 Z M11 32 C11 36.62 11 41.24 11 46 C14.0628125 46.0928125 14.0628125 46.0928125 17.1875 46.1875 C18.91033203 46.23970703 18.91033203 46.23970703 20.66796875 46.29296875 C24.31936392 45.97191994 26.13114995 45.24473093 29 43 C30.16448881 40.09648876 30.16448881 40.09648876 30 37 C28.73589043 34.53831295 27.91765709 33.32045168 25.27734375 32.3984375 C22.40340571 31.89562158 19.66618545 31.90580233 16.75 31.9375 C13.90375 31.9684375 13.90375 31.9684375 11 32 Z " fill="#FFFFFF" transform="translate(154,26)"/>
<path d="M0 0 C28.62857143 0 28.62857143 0 36 6 C39.68616233 10.32170756 40.11253546 15.48576237 40 21 C38.3163436 27.62238186 34.19164215 30.94287348 29 35 C30.76941533 37.58430719 32.54078313 40.16727024 34.3125 42.75 C34.81201172 43.47960937 35.31152344 44.20921875 35.82617188 44.9609375 C36.31279297 45.66992188 36.79941406 46.37890625 37.30078125 47.109375 C37.74591064 47.75874023 38.19104004 48.40810547 38.6496582 49.07714844 C39.61597279 50.45315525 40.62817949 51.79737897 41.66870117 53.11816406 C43 55 43 55 43 57 C38.02288333 58.04628438 33.93796977 58.3476333 29 57 C24.64408543 53.12863385 21.88050046 47.84487462 19.03759766 42.82617188 C17.83252587 40.70524554 16.67238437 38.78507873 15 37 C13.68 36.67 12.36 36.34 11 36 C11 42.93 11 49.86 11 57 C7.37 57 3.74 57 0 57 C0 38.19 0 19.38 0 0 Z M11 11 C11 15.95 11 20.9 11 26 C19.53064604 26.56389251 19.53064604 26.56389251 27 23 C28.41909682 19.64982715 28.41909682 19.64982715 28 16 C26.46784527 12.79700819 26.46784527 12.79700819 23 11 C18.90339092 10.58501882 15.13761506 10.77265851 11 11 Z " fill="#FFFFFF" transform="translate(519,24)"/>
<path d="M0 0 C3.96 0 7.92 0 12 0 C12.33 7.26 12.66 14.52 13 22 C14.65 20.040625 16.3 18.08125 18 16.0625 C19.02271878 14.87177814 20.04602314 13.68155858 21.0703125 12.4921875 C22.84367688 10.41514156 24.45967884 8.35854702 26.0546875 6.1328125 C28.92092298 2.28246183 30.50914628 0.24101561 35.3828125 -0.546875 C38.64184691 -0.5609529 41.76749314 -0.39913576 45 0 C44.4373577 3.91170358 42.61621219 5.803852 39.9375 8.625 C35.35839768 13.55634096 31.14017123 18.69787335 27 24 C28.26031281 27.43653537 29.69743622 30.23330458 31.86328125 33.1796875 C32.69956055 34.32630859 32.69956055 34.32630859 33.55273438 35.49609375 C34.13345703 36.28113281 34.71417969 37.06617188 35.3125 37.875 C37.00901559 40.1920983 38.70518388 42.50944956 40.40087891 44.82714844 C41.43558438 46.23308412 42.47900193 47.63266709 43.53271484 49.02441406 C47 53.67597815 47 53.67597815 47 57 C42.23562248 58.30332516 37.59439899 59.1257667 33 57 C27.71234178 51.90808558 23.99025054 45.35040918 20.29003906 39.06298828 C19.03680969 36.88705535 19.03680969 36.88705535 17 35 C12.59787157 39.39332418 12.35880848 42.91211279 12.25 48.8125 C12.22035156 49.60076172 12.19070313 50.38902344 12.16015625 51.20117188 C12.08988707 53.13357446 12.04262866 55.06679015 12 57 C8.04 57 4.08 57 0 57 C0 38.19 0 19.38 0 0 Z " fill="#FFFFFF" transform="translate(569,24)"/>
<path d="M0 0 C3.96 0 7.92 0 12 0 C12.33 6.93 12.66 13.86 13 21 C14.299375 19.576875 15.59875 18.15375 16.9375 16.6875 C17.76894531 15.78644531 18.60039062 14.88539062 19.45703125 13.95703125 C22.04612967 11.06821831 22.04612967 11.06821831 24.07421875 7.88671875 C26.21342214 4.74514577 27.99871831 2.34598001 31 0 C36.18524181 -0.91870651 40.76402332 -0.68295348 46 0 C43.18917038 4.44827046 40.11333775 8.24732731 36.5 12.0625 C33.17858043 15.59659903 29.98056814 19.1688452 27 23 C28.65088372 28.29129397 31.98912969 32.35840284 35.25 36.75 C48 54.04310345 48 54.04310345 48 56 C42.86812812 57.29374921 37.94269436 58.20635689 33 56 C27.68102125 50.87235142 24.00877376 44.21885544 20.38769531 37.8359375 C19.70078613 36.92714844 19.70078613 36.92714844 19 36 C16.05345147 35.69882414 16.05345147 35.69882414 14.34448242 37.24926758 C12.74792017 39.32824849 12.58583384 40.41681973 12.48828125 43.01171875 C12.45283203 43.76904297 12.41738281 44.52636719 12.38085938 45.30664062 C12.34702148 46.48516602 12.34702148 46.48516602 12.3125 47.6875 C12.27833984 48.48478516 12.24417969 49.28207031 12.20898438 50.10351562 C12.12661896 52.06851904 12.06162933 54.03423696 12 56 C8.04 56 4.08 56 0 56 C0 37.52 0 19.04 0 0 Z " fill="#FFFFFF" transform="translate(332,26)"/>
<path d="M0 0 C4.29 0 8.58 0 13 0 C17.31515405 10.136782 21.28632285 20.39248949 25.21313477 30.68481445 C26.32273999 33.58930407 27.43964416 36.49092428 28.55664062 39.39257812 C29.26346912 41.24201623 29.96986544 43.09161958 30.67578125 44.94140625 C31.01007645 45.80697647 31.34437164 46.67254669 31.688797 47.56434631 C32.14508736 48.76721535 32.14508736 48.76721535 32.6105957 49.99438477 C32.87975296 50.69765396 33.14891022 51.40092316 33.42622375 52.12550354 C34 54 34 54 34 57 C29.71 57 25.42 57 21 57 C19.68 53.04 18.36 49.08 17 45 C10.07 44.67 3.14 44.34 -4 44 C-4.66 46.97 -5.32 49.94 -6 53 C-6.66 54.32 -7.32 55.64 -8 57 C-12.29 57 -16.58 57 -21 57 C-14.51436875 37.81130904 -7.21529933 18.92271889 0 0 Z M6 15 C5.16112944 17.43572059 4.32873471 19.87333217 3.5 22.3125 C3.26152344 23.00279297 3.02304687 23.69308594 2.77734375 24.40429688 C1.76791737 27.38931489 1 29.82658914 1 33 C4.96 33 8.92 33 13 33 C11.2177429 26.88940424 9.30678315 20.9317281 7 15 C6.67 15 6.34 15 6 15 Z " fill="#FFFFFF" transform="translate(477,24)"/>
<path d="M0 0 C1.34094727 -0.03577148 1.34094727 -0.03577148 2.70898438 -0.07226562 C3.57716797 -0.07033203 4.44535156 -0.06839844 5.33984375 -0.06640625 C6.51921509 -0.0674939 6.51921509 -0.0674939 7.72241211 -0.06860352 C11.44972904 0.93662489 12.81242627 2.43559544 15.0625 5.5625 C15.73797286 9.01693473 15.64523809 12.38617365 15.55078125 15.89453125 C15.54370651 16.88627853 15.53663177 17.87802582 15.52934265 18.89982605 C15.50141433 22.05899342 15.4386772 25.21637082 15.375 28.375 C15.34991518 30.52015665 15.32710234 32.66534115 15.30664062 34.81054688 C15.25159327 40.06180584 15.1679831 45.31202503 15.0625 50.5625 C13.94129843 49.6074028 12.82093599 48.65132049 11.70092773 47.69482422 C11.07693588 47.1625119 10.45294403 46.63019958 9.81004333 46.08175659 C7.83025864 44.36059702 5.96095846 42.560927 4.125 40.6875 C3.53847656 40.09195313 2.95195313 39.49640625 2.34765625 38.8828125 C1.92355469 38.44710937 1.49945313 38.01140625 1.0625 37.5625 C0.0725 38.42875 -0.9175 39.295 -1.9375 40.1875 C-4.56146905 42.48347291 -7.29056354 44.59497567 -10.08203125 46.68115234 C-10.80366455 47.22089691 -11.52529785 47.76064148 -12.26879883 48.31674194 C-12.81947021 48.7278421 -13.3701416 49.13894226 -13.9375 49.5625 C-14.03891463 43.22718985 -14.10897114 36.89208898 -14.15722656 30.55615234 C-14.17734276 28.40079933 -14.20463925 26.24550089 -14.23925781 24.09033203 C-14.28777486 20.99237605 -14.31046873 17.89514154 -14.328125 14.796875 C-14.34877014 13.83320007 -14.36941528 12.86952515 -14.39068604 11.87664795 C-14.39291065 5.24507207 -14.39291065 5.24507207 -12.19995117 1.95825195 C-8.27390891 -0.46380304 -4.49943004 -0.05491049 0 0 Z " fill="#FDFDFE" transform="translate(51.9375,28.4375)"/>
</svg>
